<?xml version="1.0" standalone="no"?>
<!DOCTYPE svg PUBLIC "-//W3C//DTD SVG 20010904//EN"
 "http://www.w3.org/TR/2001/REC-SVG-20010904/DTD/svg10.dtd">
<svg version="1.0" xmlns="http://www.w3.org/2000/svg"
 width="696.000000pt" height="696.000000pt" viewBox="0 0 696.000000 696.000000"
 preserveAspectRatio="xMidYMid meet">
<metadata>
Created by potrace 1.11, written by Peter Selinger 2001-2013
</metadata>
<g transform="translate(0.000000,696.000000) scale(0.100000,-0.100000)"
fill="#000000" stroke="none">
<path d="M598 5004 c-4 -5 -21 -11 -39 -12 -18 -1 -38 -10 -46 -20 -12 -16
-13 -15 -7 3 l6 20 -17 -20 c-9 -11 -21 -19 -26 -17 -9 2 -10 1 -14 -35 -2
-17 3 -23 16 -23 11 0 19 -6 19 -12 0 -8 3 -9 8 -3 8 12 29 18 55 17 9 0 15 3
12 8 -3 5 7 7 22 6 16 -2 36 1 47 6 13 7 21 6 27 -3 5 -8 9 -9 9 -3 0 6 16 10
40 8 22 -1 38 2 35 7 -4 5 1 6 9 3 9 -3 16 -11 16 -18 0 -7 3 -7 8 -1 9 12 52
18 52 7 0 -5 30 -9 66 -9 45 0 69 -5 75 -14 5 -8 9 -9 9 -4 0 14 50 15 50 1 0
-7 3 -7 8 -1 8 12 42 16 42 5 0 -4 11 -6 25 -5 14 2 25 -1 25 -6 0 -5 5 -9 11
-9 5 0 7 6 3 13 -6 9 -5 9 8 0 8 -7 18 -10 21 -6 4 3 7 0 7 -8 0 -12 2 -12 9
0 6 8 14 10 22 5 14 -8 23 -11 69 -16 14 -2 31 -10 38 -18 12 -13 13 -13 6 0
-7 13 -6 13 10 0 10 -8 30 -16 44 -18 15 -2 30 -9 34 -15 4 -7 8 -8 8 -4 0 12
35 -24 36 -37 0 -6 -4 -17 -9 -23 -5 -7 -7 -13 -3 -13 4 0 -1 -11 -10 -25 -9
-14 -13 -25 -9 -25 4 0 2 -7 -5 -15 -7 -8 -9 -15 -4 -15 4 0 -1 -7 -12 -15
-14 -11 -15 -14 -4 -15 10 0 7 -7 -10 -21 -14 -11 -18 -17 -10 -13 13 7 13 5
1 -9 -7 -9 -11 -24 -7 -32 3 -9 2 -13 -4 -10 -10 6 -35 -75 -34 -112 0 -13 -4
-23 -9 -23 -4 0 -6 -4 -2 -9 3 -5 0 -13 -6 -17 -8 -4 -7 -9 2 -15 11 -7 11
-11 2 -17 -7 -4 -11 -18 -8 -30 2 -12 -1 -22 -8 -22 -8 0 -8 -3 0 -11 8 -8 8
-20 3 -35 -7 -17 -6 -24 3 -24 8 0 7 -4 -3 -10 -8 -5 -10 -10 -4 -10 6 0 11
-7 11 -15 0 -8 -5 -15 -10 -15 -5 0 -4 -6 2 -13 6 -8 8 -17 4 -20 -3 -4 -1 -7
5 -7 6 0 9 -7 6 -15 -4 -9 0 -15 7 -15 11 0 11 -3 -1 -10 -12 -7 -12 -10 -1
-10 7 0 11 -6 7 -15 -3 -8 0 -15 7 -15 8 -1 7 -5 -3 -13 -9 -7 -15 -22 -14
-34 1 -13 -4 -23 -9 -23 -7 0 -7 -4 1 -12 8 -8 8 -17 1 -30 -6 -11 -8 -22 -5
-25 2 -3 1 -16 -4 -29 -7 -17 -6 -24 3 -24 8 0 7 -4 -3 -10 -8 -5 -10 -10 -3
-10 12 0 12 -17 0 -37 -5 -7 -4 -13 2 -13 7 0 7 -8 1 -25 -7 -18 -6 -25 3 -25
8 0 7 -4 -3 -10 -8 -5 -10 -10 -4 -10 6 0 11 -7 11 -15 0 -8 -4 -15 -8 -15 -5
0 -6 -6 -3 -14 3 -8 7 -29 8 -48 1 -18 7 -43 14 -55 10 -19 10 -23 0 -23 -8 0
-5 -5 5 -11 14 -8 16 -14 6 -25 -6 -8 -7 -14 -2 -14 9 0 14 -35 16 -97 0 -18
4 -33 9 -33 5 0 4 -8 -1 -19 -6 -10 -7 -21 -4 -25 11 -11 14 -48 3 -41 -7 4
-7 -2 0 -19 5 -14 6 -26 3 -26 -4 0 -2 -5 5 -12 16 -16 15 -31 0 -22 -7 4 -5
-2 5 -13 9 -11 17 -25 17 -32 0 -7 5 -9 12 -5 7 4 8 3 4 -4 -4 -6 -3 -19 2
-29 5 -10 17 -35 27 -56 10 -21 31 -51 47 -67 15 -17 28 -34 28 -39 0 -5 8
-15 17 -22 14 -12 16 -12 9 1 -4 8 0 6 8 -4 9 -11 16 -23 16 -28 0 -4 6 -8 14
-8 8 0 16 -4 18 -8 2 -4 20 -21 41 -36 20 -16 37 -34 37 -41 0 -7 8 -19 18
-26 15 -12 16 -12 7 1 -5 9 -2 7 8 -3 9 -11 17 -16 17 -12 0 3 7 0 15 -9 8 -8
15 -20 15 -26 0 -6 5 -8 10 -5 6 3 10 1 10 -4 0 -6 7 -11 15 -11 8 0 15 -4 15
-9 0 -8 37 -24 53 -22 4 1 7 -3 7 -8 0 -8 48 -29 83 -37 4 -1 10 -3 15 -4 4
-1 10 -2 15 -1 4 0 7 -3 7 -9 0 -6 3 -9 8 -9 4 1 9 0 12 -1 3 -1 12 -3 20 -5
8 -2 35 -8 59 -13 25 -6 49 -9 53 -6 4 3 8 0 8 -7 0 -7 2 -10 6 -7 3 3 21 2
40 -2 23 -5 34 -4 34 4 0 7 3 6 9 -2 4 -8 12 -14 16 -14 4 0 12 6 16 14 6 8 9
9 9 2 0 -8 11 -9 35 -4 19 4 35 6 35 3 0 -3 6 -1 13 6 10 8 17 7 25 -1 9 -9
12 -9 12 3 0 12 2 12 10 -1 7 -12 10 -12 10 -1 0 7 6 11 15 7 8 -3 15 -1 15 5
0 6 4 8 9 4 5 -3 12 -1 16 5 4 6 10 8 14 6 4 -3 15 6 25 19 10 14 23 22 29 18
6 -4 8 0 4 10 -3 9 -3 16 1 14 4 -1 22 12 41 28 18 17 37 29 42 27 5 -1 8 1 7
5 -3 9 88 103 98 103 4 0 18 12 32 28 13 15 21 20 17 12 -4 -8 13 6 38 32 24
26 47 45 50 42 2 -3 7 7 11 21 4 14 11 25 17 25 6 0 7 5 4 10 -3 6 -1 10 4 10
6 0 11 9 11 19 0 11 5 23 10 26 8 5 7 11 -1 21 -9 11 -9 14 0 14 7 0 10 4 6 9
-3 5 0 13 6 17 8 4 7 9 -2 15 -9 5 -10 9 -2 9 6 0 9 8 6 19 -3 10 0 22 6 25 5
4 8 13 5 21 -4 10 6 8 38 -7 43 -22 61 -28 86 -30 6 -1 12 -5 12 -10 0 -5 4
-7 8 -4 5 3 20 -1 35 -9 15 -8 27 -12 27 -9 0 3 15 -3 33 -12 68 -36 70 -36
62 -22 -6 10 -5 11 6 1 7 -7 21 -13 31 -13 11 0 15 -5 12 -14 -3 -8 0 -24 6
-36 8 -15 8 -20 1 -16 -6 4 -11 0 -11 -9 0 -9 4 -14 8 -11 5 3 9 -1 9 -9 0 -8
-4 -12 -8 -9 -12 7 -6 -50 6 -58 6 -5 5 -8 -4 -8 -7 0 -11 -6 -8 -15 4 -8 3
-17 -2 -19 -4 -3 -7 -15 -6 -28 1 -13 -5 -32 -14 -42 -9 -11 -11 -16 -5 -13 7
4 15 0 18 -9 3 -8 2 -12 -4 -9 -6 3 -11 -5 -11 -19 -1 -14 -2 -29 -4 -33 -1
-5 -5 -21 -10 -38 -4 -16 -13 -36 -19 -44 -6 -7 -11 -19 -11 -25 -2 -31 -57
-111 -68 -99 -3 2 -15 -1 -27 -7 -18 -10 -21 -10 -14 2 6 10 5 11 -7 2 -8 -6
-26 -10 -41 -9 -16 1 -28 -1 -28 -4 0 -9 -57 -7 -65 1 -11 11 -35 -3 -28 -16
3 -6 1 -6 -8 2 -17 16 -32 16 -23 0 6 -10 4 -10 -8 0 -24 19 -93 0 -84 -24 3
-7 0 -15 -7 -18 -9 -3 -8 -5 1 -5 7 -1 10 -5 7 -11 -3 -6 -1 -10 5 -10 6 0 9
-4 6 -9 -3 -5 16 -8 44 -8 28 1 52 -2 54 -8 3 -5 5 -4 5 4 1 11 4 11 16 1 12
-10 15 -10 15 0 0 9 4 9 13 3 6 -6 24 -10 40 -9 15 1 27 -1 27 -5 0 -4 9 -5
20 -2 11 3 20 8 20 12 0 4 9 7 20 7 11 0 20 -5 20 -11 0 -5 5 -3 10 5 9 13 10
13 10 0 0 -10 3 -11 8 -3 4 6 16 13 27 15 11 1 26 8 32 13 7 6 23 19 37 29 14
12 22 26 18 35 -3 9 -2 13 3 9 6 -6 51 73 56 100 0 4 6 16 12 27 6 11 11 23
12 27 0 3 3 10 7 14 5 4 8 17 8 29 0 11 5 26 12 33 7 7 8 12 2 12 -6 0 -11 7
-11 15 0 8 5 11 10 8 6 -4 8 3 5 15 -4 12 -2 22 2 22 5 0 7 8 6 18 -2 9 0 29
5 45 5 17 4 27 -3 27 -6 0 -6 6 2 15 10 12 10 15 0 15 -10 0 -10 3 0 15 10 12
10 15 0 15 -9 0 -10 3 -1 13 6 8 8 17 4 21 -11 11 -10 39 2 52 6 7 20 11 33 9
12 -1 22 3 22 9 0 6 5 4 10 -5 6 -10 22 -14 52 -13 24 1 49 -3 56 -8 6 -6 12
-7 12 -3 0 4 8 1 17 -6 14 -12 16 -12 8 0 -6 11 -3 13 15 8 13 -3 31 -1 39 6
12 9 13 9 7 0 -7 -12 24 -19 63 -14 8 2 10 -2 5 -11 -6 -11 -5 -11 8 0 12 9
18 10 23 2 4 -7 16 -10 26 -7 10 3 21 2 24 -2 2 -4 19 -6 37 -4 25 3 29 2 18
-6 -18 -13 -1 -14 20 -2 8 6 19 7 25 3 5 -4 21 -8 34 -10 27 -3 62 -32 39 -32
-10 0 -9 -3 2 -10 12 -8 12 -10 1 -10 -10 0 -11 -3 -2 -14 9 -11 9 -15 -1 -19
-10 -4 -10 -6 1 -6 11 -1 11 -4 1 -16 -7 -8 -8 -15 -3 -15 5 0 10 -7 10 -15 0
-8 -5 -15 -10 -15 -5 0 -5 -6 2 -13 8 -10 7 -17 -2 -27 -10 -10 -9 -11 3 -5
12 6 13 5 3 -6 -7 -7 -13 -22 -13 -33 0 -12 -7 -33 -14 -48 -11 -20 -12 -28
-3 -28 8 0 8 -3 -1 -9 -8 -4 -12 -14 -11 -22 1 -8 -1 -22 -4 -31 -17 -44 -20
-54 -23 -76 -1 -13 -8 -30 -15 -38 -9 -11 -9 -14 1 -14 10 0 10 -3 0 -15 -7
-8 -10 -26 -8 -40 3 -13 2 -22 -2 -20 -11 6 -21 -51 -13 -72 5 -11 3 -14 -6
-8 -8 4 -6 -4 4 -19 18 -27 31 -36 20 -13 -4 6 0 4 8 -5 8 -10 17 -15 20 -11
4 3 7 1 7 -5 0 -14 22 -12 32 3 5 6 8 6 8 -2 0 -6 9 -11 20 -10 11 1 20 5 20
10 0 4 6 5 13 0 20 -12 37 -12 37 0 0 8 3 8 8 2 9 -13 85 -13 94 0 5 7 8 7 8
0 0 -6 24 -12 54 -13 47 -2 56 1 69 22 12 18 13 26 4 36 -9 10 -9 11 3 5 8 -4
5 1 -6 13 -12 11 -32 22 -45 24 -13 1 -27 8 -31 13 -5 6 -8 5 -8 -4 0 -11 -3
-11 -15 -1 -12 10 -15 10 -15 -1 0 -10 -3 -10 -11 -2 -8 8 -20 8 -35 3 -16 -7
-24 -6 -24 1 0 8 -5 7 -15 -1 -8 -7 -15 -8 -15 -3 0 5 -9 9 -20 9 -11 0 -20
-3 -20 -7 0 -4 -11 -6 -25 -4 -14 1 -25 -2 -25 -7 0 -5 -4 -6 -10 -3 -11 7 -9
33 3 53 5 7 3 12 -5 12 -10 0 -10 2 1 9 7 5 10 14 7 20 -4 6 0 14 8 17 9 3 13
10 10 15 -3 6 0 16 6 24 7 8 9 15 5 15 -4 0 -1 8 6 17 12 14 12 16 -1 9 -9 -4
-8 -2 2 7 10 8 19 30 20 51 2 20 7 36 11 36 5 0 6 4 2 9 -3 5 0 13 6 16 5 4 8
13 5 21 -3 8 -2 14 2 14 11 0 13 28 14 165 l1 120 64 0 c34 0 63 -3 63 -8 0
-4 11 -5 25 -3 17 3 23 1 19 -6 -5 -7 0 -9 14 -6 12 3 23 1 26 -6 3 -8 5 -7 5
1 1 7 7 10 15 7 8 -3 24 0 36 6 18 10 21 10 15 -2 -6 -10 -5 -10 5 -1 9 9 19
9 33 2 13 -8 17 -8 13 -1 -4 6 2 10 14 9 11 -1 20 -5 20 -10 0 -5 6 -5 13 0 6
6 21 9 32 6 43 -9 60 -9 73 0 8 6 18 5 29 -4 15 -12 16 -12 8 1 -8 13 -7 13 8
1 9 -7 17 -10 17 -5 0 5 14 9 30 9 17 1 30 -3 30 -8 0 -5 6 -4 13 2 11 8 17 5
27 -13 7 -13 9 -29 6 -35 -4 -6 -2 -11 3 -11 6 0 11 -9 11 -21 0 -12 4 -17 11
-13 8 5 8 1 0 -14 -7 -13 -7 -22 -1 -24 6 -2 11 -20 12 -40 1 -21 5 -35 11
-31 5 3 4 -4 -2 -15 -7 -14 -8 -23 -1 -27 6 -4 8 -11 5 -16 -4 -5 -1 -9 4 -9
6 0 11 -5 11 -11 0 -5 -6 -7 -12 -3 -10 6 -10 4 0 -8 10 -12 10 -18 1 -23 -8
-6 -8 -9 1 -15 7 -4 13 -24 13 -44 1 -20 4 -36 8 -36 3 0 4 -11 1 -25 -2 -14
-8 -22 -13 -19 -5 3 -12 -2 -15 -10 -3 -9 -10 -13 -15 -10 -6 3 -16 0 -24 -6
-8 -7 -15 -9 -15 -5 0 4 -12 0 -26 -10 -15 -9 -23 -11 -19 -5 4 7 -6 3 -23
-10 -16 -12 -35 -20 -40 -16 -5 3 -13 -1 -16 -10 -3 -8 -10 -13 -14 -10 -5 3
-17 -1 -27 -8 -10 -7 -32 -11 -48 -10 -17 2 -27 1 -24 -3 4 -3 -1 -12 -10 -18
-16 -12 -16 -14 1 -40 16 -24 22 -26 59 -22 50 6 88 17 103 28 6 5 14 6 17 2
4 -3 7 0 7 7 0 7 3 10 6 7 4 -3 14 -2 24 3 9 5 32 12 50 15 18 3 45 12 60 20
15 8 30 11 34 8 3 -4 6 1 6 11 0 9 3 15 8 12 4 -2 16 2 27 10 10 8 16 14 12
14 -4 0 -1 10 8 23 8 13 12 27 8 31 -4 4 -1 11 7 16 10 6 11 10 3 10 -7 0 -10
7 -6 15 3 9 -3 23 -13 31 -11 9 -13 13 -7 9 9 -4 12 2 11 19 -1 15 -5 26 -9
26 -3 0 -6 7 -6 15 0 8 5 15 11 15 7 0 7 3 1 8 -10 7 -12 19 -16 77 -2 17 -7
36 -13 44 -8 11 -8 13 2 7 6 -4 12 -2 12 3 0 6 -4 11 -9 11 -4 0 -8 8 -8 18 0
38 -3 53 -11 48 -4 -2 -9 7 -10 21 -1 13 -5 30 -9 36 -14 22 -10 48 9 58 10 5
18 7 18 3 0 -3 8 0 17 7 15 12 16 12 8 -1 -7 -12 -6 -13 7 -3 8 7 18 10 21 6
4 -3 7 -1 7 6 0 9 9 12 25 9 13 -3 22 -1 19 3 -3 5 -2 9 3 10 4 0 16 2 26 4 9
2 15 0 12 -5 -3 -5 0 -10 5 -12 6 -2 12 -10 13 -19 2 -9 10 -28 20 -42 9 -15
17 -33 17 -42 0 -8 5 -15 10 -15 6 0 10 -7 10 -15 0 -8 5 -15 12 -15 6 0 9 -3
5 -6 -6 -6 1 -17 34 -53 8 -9 13 -23 11 -29 -2 -7 1 -12 7 -12 6 0 11 -6 11
-14 0 -8 5 -16 10 -18 6 -2 12 -13 13 -26 0 -12 5 -22 9 -22 4 0 8 -9 8 -20 0
-11 5 -20 11 -20 8 0 8 -5 -1 -15 -7 -8 -8 -15 -3 -15 6 0 9 -11 8 -25 -2 -17
2 -25 11 -25 9 0 12 -4 9 -10 -4 -6 8 -10 29 -10 20 0 36 5 36 10 0 6 6 10 13
10 15 0 93 71 90 82 -2 5 2 8 8 8 5 0 7 5 4 10 -3 6 1 10 10 10 9 0 13 4 10
10 -3 6 1 7 9 4 9 -3 16 -1 16 5 0 11 15 31 58 79 30 34 29 80 -2 92 -30 11
-66 2 -66 -17 0 -8 -4 -11 -10 -8 -9 6 -14 -8 -11 -27 0 -5 -6 -8 -15 -8 -8 0
-13 -4 -10 -9 3 -4 -6 -13 -19 -19 -14 -7 -25 -16 -25 -22 0 -6 -5 -8 -10 -5
-6 4 -10 3 -9 -2 4 -21 -3 -32 -21 -38 -11 -4 -18 -11 -15 -16 11 -17 -4 -9
-24 13 -11 11 -18 25 -15 29 3 5 -5 30 -18 56 -12 26 -22 50 -22 53 -1 3 -7
12 -14 20 -41 48 -52 64 -52 77 0 7 -4 13 -10 13 -5 0 -7 7 -4 15 4 8 1 15 -5
15 -6 0 -11 5 -11 11 0 7 -8 18 -17 26 -10 8 -13 12 -7 9 7 -3 14 1 18 9 3 8
0 14 -6 12 -21 -4 -17 45 3 50 11 3 19 9 19 14 0 5 6 9 14 9 7 0 19 7 26 15 7
8 16 12 21 9 5 -3 9 2 9 10 0 9 3 15 8 15 19 -3 33 2 27 10 -3 5 11 15 30 21
19 6 34 14 32 18 -3 10 40 51 47 44 3 -3 6 2 6 11 0 9 7 17 17 17 9 0 14 3 10
6 -3 3 7 18 22 33 34 31 100 128 80 116 -11 -7 -12 -6 -2 6 7 9 14 24 16 35 1
10 6 25 10 32 5 7 3 12 -4 12 -8 0 -9 3 0 13 6 8 8 17 4 20 -3 4 -1 7 6 7 7 0
10 4 7 9 -3 5 1 11 9 15 8 3 17 1 20 -4 4 -6 11 -10 16 -10 6 0 7 5 4 10 -4 6
5 5 20 -2 19 -8 28 -9 37 0 8 8 17 8 30 1 13 -7 18 -6 18 3 0 8 3 9 8 3 9 -12
52 -13 71 -1 11 7 12 6 6 -5 -7 -11 -6 -12 7 -2 8 7 18 10 21 6 4 -3 7 -1 7 5
0 7 7 12 17 12 9 0 14 3 10 6 -3 4 4 15 16 26 12 11 15 16 7 12 -13 -7 -13 -5
-1 9 9 11 10 17 2 17 -6 0 -11 7 -11 15 0 8 -3 14 -7 13 -5 0 -16 2 -26 7 -11
4 -23 3 -30 -4 -6 -6 -21 -11 -33 -11 -13 0 -26 -5 -30 -11 -5 -8 -9 -8 -14 1
-5 8 -13 9 -21 4 -19 -12 -39 -14 -39 -4 0 8 -36 6 -62 -5 -17 -7 -23 3 -19
28 0 4 -3 7 -7 7 -4 0 -7 18 -5 40 1 28 -3 42 -15 50 -14 7 -14 9 -2 10 13 0
13 1 0 10 -8 5 -12 10 -7 10 4 0 0 11 -9 25 -9 14 -12 25 -8 25 5 0 4 4 -2 8
-13 8 -47 72 -39 72 4 0 0 7 -7 15 -30 33 -38 45 -38 55 0 5 -4 10 -8 10 -5 0
-9 7 -9 15 0 8 5 15 10 15 5 0 6 7 3 16 -3 8 -2 13 2 10 4 -2 16 2 27 10 10 8
15 14 10 14 -5 0 5 11 23 23 17 13 29 27 25 30 -3 4 2 7 12 7 10 0 16 3 12 6
-3 3 8 24 24 47 16 22 29 48 29 58 0 9 6 20 13 22 9 4 8 8 -3 16 -12 8 -12 11
-1 11 10 0 11 3 3 13 -7 8 -7 18 -2 27 5 8 6 18 3 22 -2 5 0 15 7 23 6 7 7 16
2 19 -4 2 -6 21 -4 40 2 21 8 33 14 30 6 -4 3 4 -5 17 -15 23 -17 28 -17 47 0
5 -10 20 -22 35 -19 20 -31 25 -63 23 -22 -2 -49 1 -59 7 -24 12 -156 19 -156
9 0 -4 -19 -7 -42 -6 -24 1 -47 -1 -53 -5 -5 -3 -23 -7 -40 -8 -47 -4 -100
-11 -100 -13 0 -6 -51 -12 -125 -14 -49 -1 -96 -8 -110 -16 -14 -8 -39 -14
-56 -15 -17 -1 -35 -5 -41 -8 -6 -4 -24 -8 -42 -9 -17 -1 -31 -6 -31 -11 0 -4
-5 -5 -10 -2 -6 4 -22 -1 -35 -9 -14 -9 -25 -14 -25 -10 0 4 -7 1 -15 -6 -8
-6 -19 -9 -24 -5 -6 3 -23 -2 -38 -12 -17 -11 -24 -13 -19 -5 7 12 4 12 -15 1
-13 -7 -31 -14 -39 -15 -8 -2 -16 -8 -18 -14 -2 -5 -8 -8 -13 -4 -5 3 -19 -2
-31 -10 -12 -9 -30 -16 -40 -16 -10 0 -18 -5 -18 -11 0 -5 -4 -7 -10 -4 -6 3
-10 2 -10 -3 0 -8 -31 -21 -57 -23 -5 0 -14 -5 -20 -11 -7 -6 -13 -7 -13 -4 0
4 -10 -2 -22 -14 -12 -11 -30 -20 -40 -20 -10 0 -18 -4 -18 -10 0 -5 -7 -7
-15 -4 -8 4 -15 2 -15 -4 0 -5 -28 -25 -62 -42 -35 -18 -74 -41 -87 -51 -13
-11 -28 -19 -34 -19 -6 0 -18 -6 -26 -14 -20 -18 -101 -65 -123 -73 -10 -3
-18 -9 -18 -13 0 -4 -16 -11 -35 -14 -19 -4 -35 -12 -35 -19 0 -8 -3 -8 -9 2
-7 10 -11 9 -23 -8 -14 -20 -47 -36 -96 -46 -37 -8 -57 -13 -59 -15 -2 -2 -7
-4 -13 -5 -5 -1 -13 -4 -17 -5 -5 -1 -11 -2 -15 -1 -5 0 -8 -5 -8 -11 0 -10
-3 -9 -9 1 -6 8 -14 10 -22 5 -8 -5 -25 -10 -39 -12 -13 -2 -30 -8 -37 -14 -7
-5 -17 -7 -22 -4 -5 4 -12 2 -16 -4 -4 -6 -10 -8 -15 -5 -5 3 -11 1 -14 -4 -3
-5 -15 -7 -26 -4 -11 3 -20 1 -20 -4 0 -6 -11 -8 -24 -6 -13 3 -33 0 -45 -6
-12 -7 -21 -8 -21 -2 0 5 -13 3 -28 -5 -16 -7 -37 -15 -48 -17 -10 -1 -25 -6
-31 -10 -7 -5 -13 -5 -13 -1 0 3 -12 -1 -26 -11 -15 -9 -23 -12 -20 -6 10 15
-7 14 -22 -1 -7 -7 -12 -8 -12 -3 0 6 -5 3 -10 -5 -9 -13 -10 -13 -10 0 0 13
-1 13 -10 0 -7 -11 -10 2 -10 43 0 35 -4 57 -11 57 -8 0 -8 4 -1 13 7 8 7 18
2 27 -5 9 -5 19 2 27 7 9 7 13 -1 13 -7 0 -9 5 -4 13 10 16 13 37 4 37 -9 0
-7 43 3 59 5 7 5 16 0 20 -5 3 -10 26 -12 50 -1 24 -7 50 -13 58 -6 7 -9 13
-6 13 3 0 0 20 -7 44 -8 25 -11 47 -8 50 2 3 -1 13 -9 22 -8 10 -13 19 -12 20
1 2 -1 13 -4 23 -3 11 -4 23 -3 27 1 4 -3 10 -10 14 -6 4 -12 13 -14 21 -4 27
-58 129 -69 129 -5 0 -2 9 8 20 10 11 23 19 29 17 6 -3 20 0 31 6 10 5 33 11
50 13 41 4 85 13 104 23 9 5 25 5 36 1 11 -4 25 -4 30 1 6 4 28 9 50 11 22 2
43 8 47 13 5 6 8 5 8 -3 0 -10 5 -10 21 -1 16 8 20 8 14 -1 -6 -9 -3 -9 12 -1
11 6 23 7 27 4 3 -3 6 -2 6 3 0 5 20 8 45 7 25 0 48 4 51 9 4 6 10 5 15 -3 7
-12 9 -12 9 0 0 11 3 11 15 1 8 -7 15 -9 15 -5 0 4 7 2 15 -5 12 -10 15 -10
15 0 0 10 3 10 15 0 10 -9 15 -9 15 -1 0 13 22 10 32 -4 5 -7 8 -7 8 0 0 10
109 11 135 1 8 -3 15 -1 15 5 0 6 5 7 10 4 6 -3 17 1 26 9 14 15 14 17 0 32
-16 16 -94 25 -102 12 -3 -5 -13 -5 -22 0 -21 9 -64 8 -82 -3 -9 -5 -11 -4 -6
3 4 7 2 12 -3 12 -6 0 -11 -5 -11 -11 0 -5 -5 -7 -11 -3 -6 3 -15 0 -20 -7 -6
-10 -9 -10 -9 -2 0 9 -7 10 -25 3 -16 -6 -26 -6 -31 1 -4 6 -11 6 -20 -2 -8
-6 -14 -7 -14 -2 0 11 -45 11 -56 1 -3 -4 -17 -3 -30 2 -14 6 -26 6 -29 0 -4
-7 -13 -6 -26 0 -14 8 -19 7 -19 -2 0 -8 -3 -9 -8 -3 -9 12 -32 18 -32 7 0 -4
-17 -8 -37 -9 -70 -4 -120 -10 -132 -17 -6 -4 -11 -1 -11 6 0 8 -3 9 -8 3 -4
-6 -20 -12 -37 -14 -16 -1 -36 -8 -44 -14 -12 -10 -13 -9 -6 3 8 13 7 13 -8 1
-11 -8 -17 -9 -17 -2 0 7 -8 8 -23 2 -13 -5 -36 -11 -53 -13 -16 -1 -32 -7
-36 -13 -5 -6 -8 -5 -8 3 0 6 -7 12 -16 12 -8 0 -12 5 -9 10 3 6 1 10 -5 10
-5 0 -24 14 -42 30 -29 28 -41 34 -61 31 -5 -1 -6 3 -2 9 3 5 -1 10 -9 10 -9
0 -16 5 -16 10 0 6 -3 9 -7 9 -26 -4 -73 2 -69 9 3 5 -8 9 -25 10 -59 4 -69 6
-69 15 0 4 -5 5 -11 1 -6 -3 -15 0 -20 7 -6 10 -9 10 -9 2 0 -9 -7 -10 -25 -3
-14 5 -25 6 -25 2 0 -4 -5 0 -10 8 -5 8 -10 11 -10 5 0 -5 -11 -10 -25 -10
-14 0 -25 5 -25 10 0 6 -4 4 -9 -4 -8 -13 -12 -13 -27 0 -16 12 -17 12 -9 -1
8 -13 7 -13 -8 -1 -9 7 -17 10 -17 5 0 -5 -11 -9 -25 -9 -14 0 -25 5 -25 10 0
6 -5 3 -10 -5 -9 -13 -11 -13 -20 0 -8 12 -10 12 -10 1 0 -10 -3 -11 -13 -2
-10 8 -17 7 -25 -1 -9 -9 -12 -9 -12 1 0 10 -3 11 -14 2 -10 -9 -16 -9 -21 -1
-5 8 -11 8 -21 -1 -11 -9 -14 -8 -14 2 0 11 -2 11 -10 -1 -9 -13 -11 -13 -20
0 -6 10 -10 11 -10 3 0 -9 -7 -10 -25 -3 -16 6 -26 6 -31 -1 -4 -8 -9 -7 -15
2 -7 11 -9 11 -9 1 0 -7 -4 -10 -10 -7 -5 3 -10 2 -10 -3 0 -5 -12 -7 -26 -4
-21 4 -25 2 -19 -9 7 -12 6 -12 -7 -1 -13 10 -17 10 -22 -3 -3 -9 -11 -13 -16
-10 -6 4 -17 1 -25 -5 -8 -7 -15 -9 -15 -5 0 4 -6 2 -13 -4 -8 -6 -17 -8 -20
-4 -4 3 -7 1 -7 -5 0 -7 -7 -12 -15 -12 -8 0 -15 -5 -15 -12 0 -6 -3 -8 -7 -5
-3 4 -12 -2 -20 -12 -15 -22 -45 -20 -69 4 -9 9 -23 14 -30 11 -8 -3 -14 -1
-14 4 0 6 -11 10 -25 10 -14 0 -25 4 -25 8 0 4 -11 9 -25 10 -45 3 -55 5 -55
11 0 4 -11 8 -26 9 -15 1 -23 -2 -19 -8 4 -6 -10 -1 -30 10 -20 11 -34 16 -31
11 9 -15 -40 -7 -60 10 -16 13 -17 12 -11 -5 6 -15 5 -16 -5 -8 -7 6 -28 9
-45 8 -18 -1 -35 3 -37 8 -3 8 -5 8 -5 0 -1 -5 -13 -9 -28 -8 -16 1 -48 3 -73
5 -25 1 -51 7 -59 13 -12 9 -13 8 -6 -4 8 -13 7 -13 -8 -1 -9 7 -17 10 -17 5
0 -5 -11 -9 -25 -9 -14 0 -25 5 -25 10 0 6 -5 3 -10 -5 -9 -13 -11 -13 -20 0
-5 8 -10 10 -10 5 0 -6 -9 -11 -20 -11 -11 0 -20 4 -20 9 0 5 -7 4 -15 -3 -12
-10 -15 -10 -15 1 0 12 -2 12 -9 0 -6 -9 -10 -10 -16 -2 -5 9 -10 9 -20 1 -10
-8 -14 -8 -17 2 -3 7 -7 8 -10 2z"/>
</g>
</svg>
